<?xml version="1.0" encoding="UTF-8" standalone="no"?>
<!-- Created with Inkscape (http://www.inkscape.org/) -->

<svg
   xmlns:dc="http://purl.org/dc/elements/1.1/"
   xmlns:cc="http://creativecommons.org/ns#"
   xmlns:rdf="http://www.w3.org/1999/02/22-rdf-syntax-ns#"
   xmlns:svg="http://www.w3.org/2000/svg"
   xmlns="http://www.w3.org/2000/svg"
   xmlns:xlink="http://www.w3.org/1999/xlink"
   xmlns:sodipodi="http://sodipodi.sourceforge.net/DTD/sodipodi-0.dtd"
   xmlns:inkscape="http://www.inkscape.org/namespaces/inkscape"
   width="78.5in"
   height="54.375in"
   viewBox="0 0 1993.9 1381.125"
   version="1.1"
   id="svg8"
   inkscape:version="0.48.5 r10040"
   sodipodi:docname="wall_setup.svg">
  <defs
     id="defs2" />
  <sodipodi:namedview
     id="base"
     pagecolor="#ffffff"
     bordercolor="#666666"
     borderopacity="1.0"
     inkscape:pageopacity="0.0"
     inkscape:pageshadow="2"
     inkscape:zoom="0.11313708"
     inkscape:cx="2616.3225"
     inkscape:cy="2831.666"
     inkscape:document-units="in"
     inkscape:current-layer="layer1"
     showgrid="false"
     borderlayer="true"
     inkscape:showpageshadow="false"
     units="in"
     inkscape:window-width="1280"
     inkscape:window-height="979"
     inkscape:window-x="0"
     inkscape:window-y="0"
     inkscape:window-maximized="1" />
  <metadata
     id="metadata5">
    <rdf:RDF>
      <cc:Work
         rdf:about="">
        <dc:format>image/svg+xml</dc:format>
        <dc:type
           rdf:resource="http://purl.org/dc/dcmitype/StillImage" />
        <dc:title />
      </cc:Work>
    </rdf:RDF>
  </metadata>
  <g
     inkscape:label="Layer 1"
     inkscape:groupmode="layer"
     id="layer1"
     transform="translate(0,1084.125)">
    <image
       y="-1084.1234"
       x="0.0016113075"
       id="image3064"
       xlink:href="file:///home/jasonrohrer/cpp/OneLifeGraphicsMasters/promo/PAXWest2019/PAXRisingWall.png"
       height="1381.1233"
       width="1994.9561" />
    <image
       sodipodi:absref="/home/jasonrohrer/cpp/OneLifeGraphicsMasters/promo/PAXWest2019/PAXRisingWall_sharp_shadow.png"
       xlink:href="PAXRisingWall_sharp_shadow.png"
       width="1994.9592"
       height="1381.1256"
       preserveAspectRatio="none"
       style="image-rendering:optimizeSpeed"
       id="image23"
       x="0.0010724129"
       y="-1084.1245" />
    <g
       id="g3951"
       style="opacity:1;fill:#ffffff"
       transform="translate(14.675553,4.5155553)">
      <path
         d="m 151.10815,-1052.2831 q -25.5888,0 -49.59804,9.1614 -23.693336,8.8455 -42.332091,25.5888 -18.638755,16.4274 -29.379732,39.17299 -10.425067,22.42969 -10.425067,48.65031 0,28.432 9.793244,52.75716 9.793245,24.00924 27.484266,41.70026 17.691022,17.69103 42.016177,27.48427 24.325153,9.47733 52.441243,9.47733 28.11609,0 52.44124,-9.47733 24.32516,-9.79324 42.01618,-27.16835 17.69102,-17.69103 27.48427,-42.01618 9.79324,-24.32516 9.79324,-52.75716 0,-26.22062 -10.74098,-48.65031 -10.42506,-22.74559 -29.06382,-39.17299 -18.63875,-16.7433 -42.648,-25.5888 -23.69333,-9.1614 -49.28213,-9.1614 z m 0,60.02311 q 13.58418,0 25.90471,5.05457 12.32053,5.05458 21.48196,13.90009 9.47733,8.84551 14.53191,20.53422 5.37048,11.3728 5.37048,23.37743 0,15.16373 -5.37048,28.11608 -5.05458,12.95236 -14.53191,22.7456 -9.16143,9.79325 -21.48196,15.16374 -12.32053,5.05457 -25.90471,5.05457 -13.58418,0 -25.90471,-5.05457 -12.32053,-5.37049 -21.79787,-15.16374 -9.161419,-9.79324 -14.531907,-22.7456 -5.054578,-12.95235 -5.054578,-28.11608 0,-12.00463 5.054578,-23.37743 5.370488,-11.3728 14.847817,-20.21831 9.47734,-9.16142 21.48196,-14.216 12.32053,-5.05457 25.90471,-5.05457 z"
         style="font-size:315.91110228999997389px;font-style:normal;font-variant:normal;font-weight:bold;font-stretch:normal;line-height:100.49999952000000292%;letter-spacing:3.93700026999999997px;word-spacing:8.60160351000000034px;fill:#ffffff;fill-opacity:1;stroke:none;font-family:Futura;-inkscape-font-specification:Futura Bold"
         id="path3858"
         inkscape:connector-curvature="0" />
      <path
         d="m 313.85164,-806.18835 h 61.91858 v -145.95093 h 0.63182 l 113.41209,145.95093 h 61.91857 v -238.19695 h -61.91857 v 145.63499 H 489.1823 L 375.77022,-1044.3853 h -61.91858 z"
         style="font-size:315.91110228999997389px;font-style:normal;font-variant:normal;font-weight:bold;font-stretch:normal;line-height:100.49999952000000292%;letter-spacing:3.93700026999999997px;word-spacing:8.60160351000000034px;fill:#ffffff;fill-opacity:1;stroke:none;font-family:Futura;-inkscape-font-specification:Futura Bold"
         id="path3860"
         inkscape:connector-curvature="0" />
      <path
         d="m 734.23359,-991.94408 v -52.44122 H 598.70773 v 238.19695 H 734.23359 V -858.6296 H 660.6263 v -41.06844 h 69.81636 v -52.44124 H 660.6263 v -39.8048 z"
         style="font-size:315.91110228999997389px;font-style:normal;font-variant:normal;font-weight:bold;font-stretch:normal;line-height:100.49999952000000292%;letter-spacing:3.93700026999999997px;word-spacing:8.60160351000000034px;fill:#ffffff;fill-opacity:1;stroke:none;font-family:Futura;-inkscape-font-specification:Futura Bold"
         id="path3862"
         inkscape:connector-curvature="0" />
      <path
         d="m 958.10679,-952.45519 v -91.93011 h -61.91858 v 238.19695 h 61.91858 v -97.61654 h 89.40281 v 97.61654 h 61.9186 v -238.19695 h -61.9186 v 91.93011 z"
         style="font-size:315.91110228999997389px;font-style:normal;font-variant:normal;font-weight:bold;font-stretch:normal;line-height:100.49999952000000292%;letter-spacing:3.93700026999999997px;word-spacing:8.60160351000000034px;fill:#ffffff;fill-opacity:1;stroke:none;font-family:Futura;-inkscape-font-specification:Futura Bold"
         id="path3864"
         inkscape:connector-curvature="0" />
      <path
         d="m 1276.0942,-1052.2831 q -25.5888,0 -49.598,9.1614 -23.6934,8.8455 -42.3321,25.5888 -18.6388,16.4274 -29.3798,39.17299 -10.425,22.42969 -10.425,48.65031 0,28.432 9.7932,52.75716 9.7933,24.00924 27.4843,41.70026 17.691,17.69103 42.0162,27.48427 24.3251,9.47733 52.4412,9.47733 28.1161,0 52.4413,-9.47733 24.3251,-9.79324 42.0161,-27.16835 17.6911,-17.69103 27.4843,-42.01618 9.7932,-24.32516 9.7932,-52.75716 0,-26.22062 -10.7409,-48.65031 -10.4251,-22.74559 -29.0639,-39.17299 -18.6387,-16.7433 -42.648,-25.5888 -23.6933,-9.1614 -49.2821,-9.1614 z m 0,60.02311 q 13.5842,0 25.9047,5.05457 12.3206,5.05458 21.482,13.90009 9.4773,8.84551 14.5319,20.53422 5.3705,11.3728 5.3705,23.37743 0,15.16373 -5.3705,28.11608 -5.0546,12.95236 -14.5319,22.7456 -9.1614,9.79325 -21.482,15.16374 -12.3205,5.05457 -25.9047,5.05457 -13.5842,0 -25.9047,-5.05457 -12.3205,-5.37049 -21.7979,-15.16374 -9.1614,-9.79324 -14.5319,-22.7456 -5.0546,-12.95235 -5.0546,-28.11608 0,-12.00463 5.0546,-23.37743 5.3705,-11.3728 14.8478,-20.21831 9.4774,-9.16142 21.482,-14.216 12.3205,-5.05457 25.9047,-5.05457 z"
         style="font-size:315.91110228999997389px;font-style:normal;font-variant:normal;font-weight:bold;font-stretch:normal;line-height:100.49999952000000292%;letter-spacing:3.93700026999999997px;word-spacing:8.60160351000000034px;fill:#ffffff;fill-opacity:1;stroke:none;font-family:Futura;-inkscape-font-specification:Futura Bold"
         id="path3866"
         inkscape:connector-curvature="0" />
      <path
         d="m 1585.6417,-1044.3853 v 125.41668 q 0,14.53191 -1.2637,25.27289 -0.9477,10.42507 -5.0546,19.58649 -4.1068,8.84551 -12.9523,14.53191 -8.5296,5.37049 -22.7456,5.37049 -14.216,0 -23.0615,-5.37049 -8.5296,-5.6864 -12.6365,-14.84782 -4.1068,-9.16142 -5.3705,-19.58649 -0.9477,-10.42507 -0.9477,-24.95698 v -125.41668 h -61.9186 v 133.94628 q 0,29.06382 4.4228,48.96622 4.7387,19.58649 20.5342,35.06613 13.9001,13.90009 35.0661,20.21832 21.1661,6.31822 43.9117,6.31822 22.7456,0 43.9116,-6.31822 21.1661,-6.31823 35.0662,-20.21832 15.7955,-15.47964 20.2183,-35.06613 4.7386,-19.9024 4.7386,-48.96622 v -133.94628 z"
         style="font-size:315.91110228999997389px;font-style:normal;font-variant:normal;font-weight:bold;font-stretch:normal;line-height:100.49999952000000292%;letter-spacing:3.93700026999999997px;word-spacing:8.60160351000000034px;fill:#ffffff;fill-opacity:1;stroke:none;font-family:Futura;-inkscape-font-specification:Futura Bold"
         id="path3868"
         inkscape:connector-curvature="0" />
      <path
         d="m 1814.7265,-903.80489 q 24.6411,-4.42275 38.2253,-23.06151 13.9001,-18.63875 13.9001,-44.22755 0,-36.64565 -22.7456,-54.96855 -22.7456,-18.3228 -60.0231,-18.3228 h -92.562 v 238.19695 h 61.9186 v -91.61422 h 0.6318 l 58.4436,91.61422 h 77.0823 z m -61.2867,-93.19377 h 6.0023 q 8.5296,0 15.7955,1.26364 7.5819,0.94774 13.5842,4.10685 6.3182,3.15911 9.7933,9.16142 3.7909,6.00231 3.7909,15.16373 0,9.16143 -3.7909,15.16374 -3.4751,6.00231 -9.7933,9.16142 -6.0023,3.15911 -13.5842,4.42275 -7.2659,0.94774 -15.7955,0.94774 h -6.0023 z"
         style="font-size:315.91110228999997389px;font-style:normal;font-variant:normal;font-weight:bold;font-stretch:normal;line-height:100.49999952000000292%;letter-spacing:3.93700026999999997px;word-spacing:8.60160351000000034px;fill:#ffffff;fill-opacity:1;stroke:none;font-family:Futura;-inkscape-font-specification:Futura Bold"
         id="path3870"
         inkscape:connector-curvature="0" />
      <path
         d="m 151.63732,-734.79244 q -25.5888,0 -49.59804,9.16142 -23.693339,8.84551 -42.332094,25.5888 -18.638755,16.42738 -29.379732,39.17298 -10.425067,22.42968 -10.425067,48.65031 0,28.432 9.793244,52.75715 9.793245,24.00924 27.484266,41.70027 17.691022,17.69102 42.016177,27.48426 24.325156,9.47733 52.441246,9.47733 28.11609,0 52.44124,-9.47733 24.32516,-9.79324 42.01618,-27.16835 17.69102,-17.69102 27.48427,-42.01618 9.79324,-24.32515 9.79324,-52.75715 0,-26.22063 -10.74098,-48.65031 -10.42506,-22.7456 -29.06382,-39.17298 -18.63875,-16.74329 -42.648,-25.5888 -23.69333,-9.16142 -49.28213,-9.16142 z m 0,60.02311 q 13.58418,0 25.90471,5.05458 12.32053,5.05457 21.48196,13.90008 9.47733,8.84551 14.53191,20.53423 5.37048,11.3728 5.37048,23.37742 0,15.16373 -5.37048,28.11609 -5.05458,12.95235 -14.53191,22.74559 -9.16143,9.79325 -21.48196,15.16374 -12.32053,5.05458 -25.90471,5.05458 -13.58418,0 -25.90471,-5.05458 -12.32053,-5.37049 -21.79787,-15.16374 -9.161422,-9.79324 -14.53191,-22.74559 -5.054578,-12.95236 -5.054578,-28.11609 0,-12.00462 5.054578,-23.37742 5.370488,-11.3728 14.84782,-20.21831 9.47734,-9.16143 21.48196,-14.216 12.32053,-5.05458 25.90471,-5.05458 z"
         style="font-size:315.91110228999997389px;font-style:normal;font-variant:normal;font-weight:bold;font-stretch:normal;line-height:100.49999952000000292%;letter-spacing:3.93700026999999997px;word-spacing:8.60160351000000034px;fill:#ffffff;fill-opacity:1;stroke:none;font-family:Futura;-inkscape-font-specification:Futura Bold"
         id="path3872"
         inkscape:connector-curvature="0" />
      <path
         d="m 313.85164,-488.69769 h 61.91858 v -145.95093 h 0.63182 l 113.41209,145.95093 h 61.91857 v -238.19697 h -61.91857 v 145.63501 H 489.1823 L 375.77022,-726.89466 h -61.91858 z"
         style="font-size:315.91110228999997389px;font-style:normal;font-variant:normal;font-weight:bold;font-stretch:normal;line-height:100.49999952000000292%;letter-spacing:3.93700026999999997px;word-spacing:8.60160351000000034px;fill:#ffffff;fill-opacity:1;stroke:none;font-family:Futura;-inkscape-font-specification:Futura Bold"
         id="path3874"
         inkscape:connector-curvature="0" />
      <path
         d="m 734.76276,-674.45342 v -52.44124 H 599.2369 v 238.19697 h 135.52586 v -52.44125 h -73.60729 v -41.06844 h 69.81636 v -52.44124 h -69.81636 v -39.8048 z"
         style="font-size:315.91110228999997389px;font-style:normal;font-variant:normal;font-weight:bold;font-stretch:normal;line-height:100.49999952000000292%;letter-spacing:3.93700026999999997px;word-spacing:8.60160351000000034px;fill:#ffffff;fill-opacity:1;stroke:none;font-family:Futura;-inkscape-font-specification:Futura Bold"
         id="path3876"
         inkscape:connector-curvature="0" />
      <path
         d="m 957.04845,-726.89466 h -61.91858 v 238.19697 h 136.15763 v -52.44125 h -74.23905 z"
         style="font-size:315.91110228999997389px;font-style:normal;font-variant:normal;font-weight:bold;font-stretch:normal;line-height:100.49999952000000292%;letter-spacing:3.93700026999999997px;word-spacing:8.60160351000000034px;fill:#ffffff;fill-opacity:1;stroke:none;font-family:Futura;-inkscape-font-specification:Futura Bold"
         id="path3878"
         inkscape:connector-curvature="0" />
      <path
         d="m 1121.3234,-726.89466 h -61.9186 v 238.19697 h 61.9186 z"
         style="font-size:315.91110228999997389px;font-style:normal;font-variant:normal;font-weight:bold;font-stretch:normal;line-height:100.49999952000000292%;letter-spacing:3.93700026999999997px;word-spacing:8.60160351000000034px;fill:#ffffff;fill-opacity:1;stroke:none;font-family:Futura;-inkscape-font-specification:Futura Bold"
         id="path3880"
         inkscape:connector-curvature="0" />
      <path
         d="m 1306.2601,-674.45342 v -52.44124 h -136.7895 v 238.19697 h 61.9185 v -93.50969 h 67.9209 v -52.44124 h -67.9209 v -39.8048 z"
         style="font-size:315.91110228999997389px;font-style:normal;font-variant:normal;font-weight:bold;font-stretch:normal;line-height:100.49999952000000292%;letter-spacing:3.93700026999999997px;word-spacing:8.60160351000000034px;fill:#ffffff;fill-opacity:1;stroke:none;font-family:Futura;-inkscape-font-specification:Futura Bold"
         id="path3882"
         inkscape:connector-curvature="0" />
      <path
         d="m 1483.6385,-674.45342 v -52.44124 h -135.5258 v 238.19697 h 135.5258 v -52.44125 h -73.6073 v -41.06844 h 69.8164 v -52.44124 h -69.8164 v -39.8048 z"
         style="font-size:315.91110228999997389px;font-style:normal;font-variant:normal;font-weight:bold;font-stretch:normal;line-height:100.49999952000000292%;letter-spacing:3.93700026999999997px;word-spacing:8.60160351000000034px;fill:#ffffff;fill-opacity:1;stroke:none;font-family:Futura;-inkscape-font-specification:Futura Bold"
         id="path3884"
         inkscape:connector-curvature="0" />
    </g>
  </g>
</svg>
